<svg preserveAspectRatio="xMidYMid meet" width="100%" height="100%" overflow="visible" style="display: block;" viewBox="0 0 66.9333 39.9022" fill="none" xmlns="http://www.w3.org/2000/svg">
<path id="Vector" fill-rule="evenodd" clip-rule="evenodd" d="M49.5288 0C61.1318 0 66.9333 3.32257 66.9333 9.96774C66.9333 16.6129 61.644 19.9355 51.0656 19.9355C61.644 19.9355 66.9333 23.2685 66.9333 29.9345C66.9333 36.3288 61.1318 39.6514 49.5288 39.9022H0L15.506 15.0219V15.3905H41.595C45.645 15.3487 47.6704 14.1889 47.6704 11.9112C47.6704 9.63346 45.6453 8.4737 41.595 8.43191H19.6131L24.8679 0H49.5288ZM15.506 30.6555H41.595C45.6453 30.6136 47.6704 29.454 47.6704 27.1762C47.6704 24.8984 45.6453 23.7387 41.595 23.6969H15.506V30.6555Z" fill="var(--fill-0, #FAFAFA)"/>
</svg>
