<svg preserveAspectRatio="xMidYMid meet" width="100%" height="100%" overflow="visible" style="display: block;" viewBox="0 0 31.9965 31.9965" fill="none" xmlns="http://www.w3.org/2000/svg">
<g id="Icon">
<path id="Vector" d="M11.9987 23.9974V6.66594L27.997 3.99957V21.331" stroke="var(--stroke-0, #E60000)" stroke-width="2.66638" stroke-linecap="round" stroke-linejoin="round"/>
<path id="Vector_2" d="M7.99913 27.997C10.208 27.997 11.9987 26.2063 11.9987 23.9974C11.9987 21.7885 10.208 19.9978 7.99913 19.9978C5.79023 19.9978 3.99957 21.7885 3.99957 23.9974C3.99957 26.2063 5.79023 27.997 7.99913 27.997Z" stroke="var(--stroke-0, #E60000)" stroke-width="2.66638" stroke-linecap="round" stroke-linejoin="round"/>
<path id="Vector_3" d="M23.9974 25.3306C26.2063 25.3306 27.997 23.5399 27.997 21.331C27.997 19.1221 26.2063 17.3315 23.9974 17.3315C21.7885 17.3315 19.9978 19.1221 19.9978 21.331C19.9978 23.5399 21.7885 25.3306 23.9974 25.3306Z" stroke="var(--stroke-0, #E60000)" stroke-width="2.66638" stroke-linecap="round" stroke-linejoin="round"/>
</g>
</svg>
