<svg preserveAspectRatio="xMidYMid meet" width="100%" height="100%" overflow="visible" style="display: block;" viewBox="0 0 31.9965 31.9965" fill="none" xmlns="http://www.w3.org/2000/svg">
<g id="Icon">
<path id="Vector" d="M26.6638 9.33232H14.6651" stroke="var(--stroke-0, #E60000)" stroke-width="2.66638" stroke-linecap="round" stroke-linejoin="round"/>
<path id="Vector_2" d="M18.6646 22.6642H6.66594" stroke="var(--stroke-0, #E60000)" stroke-width="2.66638" stroke-linecap="round" stroke-linejoin="round"/>
<path id="Vector_3" d="M22.6642 26.6638C24.8731 26.6638 26.6638 24.8731 26.6638 22.6642C26.6638 20.4553 24.8731 18.6646 22.6642 18.6646C20.4553 18.6646 18.6646 20.4553 18.6646 22.6642C18.6646 24.8731 20.4553 26.6638 22.6642 26.6638Z" stroke="var(--stroke-0, #E60000)" stroke-width="2.66638" stroke-linecap="round" stroke-linejoin="round"/>
<path id="Vector_4" d="M9.33232 13.3319C11.5412 13.3319 13.3319 11.5412 13.3319 9.33232C13.3319 7.12342 11.5412 5.33276 9.33232 5.33276C7.12342 5.33276 5.33276 7.12342 5.33276 9.33232C5.33276 11.5412 7.12342 13.3319 9.33232 13.3319Z" stroke="var(--stroke-0, #E60000)" stroke-width="2.66638" stroke-linecap="round" stroke-linejoin="round"/>
</g>
</svg>
