<svg preserveAspectRatio="xMidYMid meet" width="100%" height="100%" overflow="visible" style="display: block;" viewBox="0 0 31.9965 31.9965" fill="none" xmlns="http://www.w3.org/2000/svg">
<g id="Icon">
<path id="Vector" d="M15.9983 29.3302C23.3613 29.3302 29.3302 23.3613 29.3302 15.9983C29.3302 8.63527 23.3613 2.66638 15.9983 2.66638C8.63527 2.66638 2.66638 8.63527 2.66638 15.9983C2.66638 23.3613 8.63527 29.3302 15.9983 29.3302Z" stroke="var(--stroke-0, #E60000)" stroke-width="2.66638" stroke-linecap="round" stroke-linejoin="round"/>
<path id="Vector_2" d="M15.9983 23.9974C20.4161 23.9974 23.9974 20.4161 23.9974 15.9983C23.9974 11.5805 20.4161 7.99913 15.9983 7.99913C11.5805 7.99913 7.99913 11.5805 7.99913 15.9983C7.99913 20.4161 11.5805 23.9974 15.9983 23.9974Z" stroke="var(--stroke-0, #E60000)" stroke-width="2.66638" stroke-linecap="round" stroke-linejoin="round"/>
<path id="Vector_3" d="M15.9983 18.6646C17.4709 18.6646 18.6646 17.4709 18.6646 15.9983C18.6646 14.5257 17.4709 13.3319 15.9983 13.3319C14.5257 13.3319 13.3319 14.5257 13.3319 15.9983C13.3319 17.4709 14.5257 18.6646 15.9983 18.6646Z" stroke="var(--stroke-0, #E60000)" stroke-width="2.66638" stroke-linecap="round" stroke-linejoin="round"/>
</g>
</svg>
