<svg preserveAspectRatio="xMidYMid meet" width="100%" height="100%" overflow="visible" style="display: block;" viewBox="0 0 21.9936 21.9936" fill="none" xmlns="http://www.w3.org/2000/svg">
<path id="Vector" d="M20.9939 10.9968H18.5146C18.0777 10.9959 17.6526 11.1381 17.3041 11.4017C16.9557 11.6653 16.7032 12.0357 16.5852 12.4564L14.2359 20.814C14.2207 20.8659 14.1892 20.9115 14.1459 20.9439C14.1026 20.9764 14.05 20.9939 13.996 20.9939C13.9419 20.9939 13.8893 20.9764 13.846 20.9439C13.8027 20.9115 13.7712 20.8659 13.756 20.814L8.23762 1.17966C8.22247 1.12774 8.1909 1.08214 8.14764 1.0497C8.10438 1.01725 8.05176 0.999711 7.99769 0.999711C7.94361 0.999711 7.89099 1.01725 7.84773 1.0497C7.80447 1.08214 7.7729 1.12774 7.75776 1.17966L5.40843 9.53724C5.29093 9.95627 5.03992 10.3255 4.69351 10.5889C4.34709 10.8524 3.92418 10.9956 3.48899 10.9968H0.999711" stroke="var(--stroke-0, #E60000)" stroke-width="1.99942" stroke-linecap="round" stroke-linejoin="round"/>
</svg>
