<svg preserveAspectRatio="xMidYMid meet" width="100%" height="100%" overflow="visible" style="display: block;" viewBox="0 0 31.9965 31.9965" fill="none" xmlns="http://www.w3.org/2000/svg">
<g id="Icon">
<path id="Vector" d="M26.6638 17.3315C26.6638 23.9974 21.9976 27.3304 16.4515 29.2635C16.1611 29.3619 15.8457 29.3572 15.5583 29.2502C9.99892 27.3304 5.33276 23.9974 5.33276 17.3315V7.99913C5.33276 7.64555 5.47322 7.30645 5.72324 7.05643C5.97326 6.8064 6.31236 6.66594 6.66594 6.66594C9.33232 6.66594 12.6653 5.06612 14.985 3.03967C15.2675 2.79836 15.6268 2.66578 15.9983 2.66578C16.3698 2.66578 16.729 2.79836 17.0115 3.03967C19.3446 5.07945 22.6642 6.66594 25.3306 6.66594C25.6842 6.66594 26.0233 6.8064 26.2733 7.05643C26.5233 7.30645 26.6638 7.64555 26.6638 7.99913V17.3315Z" stroke="var(--stroke-0, #E60000)" stroke-width="2.66638" stroke-linecap="round" stroke-linejoin="round"/>
<path id="Vector_2" d="M11.9987 15.9983L14.6651 18.6646L19.9978 13.3319" stroke="var(--stroke-0, #E60000)" stroke-width="2.66638" stroke-linecap="round" stroke-linejoin="round"/>
</g>
</svg>
