<svg preserveAspectRatio="xMidYMid meet" width="100%" height="100%" overflow="visible" style="display: block;" viewBox="0 0 159.67 56.8926" fill="none" xmlns="http://www.w3.org/2000/svg">
<g id="Group 5">
<path id="Union" d="M137.958 0.138672C152.432 0.138704 159.67 4.86494 159.67 14.3164C159.67 23.7677 153.071 28.4931 139.875 28.4932C153.071 28.4932 159.67 33.2339 159.67 42.7148C159.67 51.8097 152.432 56.5359 137.958 56.8926H76.1719L95.5156 21.5039V22.0293H128.061C133.113 21.9699 135.64 20.3197 135.64 17.0801C135.64 13.8405 133.113 12.1913 128.061 12.1318H100.639L107.194 0.138672H137.958ZM66.8525 56.8379H47.3359L78.75 0H98.0957L66.8525 56.8379ZM68.0205 5.61133L55.7354 28.0869L48.1045 14.7119L36.6914 35.2646H51.8125L45.6221 46.5889H30.4053L24.7881 56.7539H0L30.8066 0H64.957L68.0205 5.61133ZM95.5156 43.7402H128.061C133.113 43.6808 135.64 42.0316 135.64 38.792C135.64 35.5523 133.113 33.9032 128.061 33.8438H95.5156V43.7402Z" fill="var(--fill-0, #FAFAFA)"/>
</g>
</svg>
